<?xml version="1.0" encoding="UTF-8"?>
<!DOCTYPE svg PUBLIC "-//W3C//DTD SVG 1.1//EN" "http://www.w3.org/Graphics/SVG/1.1/DTD/svg11.dtd">
<!-- Creator: CorelDRAW 2020 (64-Bit) -->
<svg xmlns="http://www.w3.org/2000/svg" xml:space="preserve" width="1558px" height="1132px" version="1.1" shape-rendering="geometricPrecision" text-rendering="geometricPrecision" image-rendering="optimizeQuality" fill-rule="evenodd" clip-rule="evenodd"
viewBox="0 0 1558 1131.479"
 xmlns:xlink="http://www.w3.org/1999/xlink"
 xmlns:xodm="http://www.corel.com/coreldraw/odm/2003">
 <g id="Capa_x0020_1">
  <metadata id="CorelCorpID_0Corel-Layer"/>
  <path fill="#FEFEFE" fill-rule="nonzero" stroke="black" stroke-width="5.668" stroke-miterlimit="22.9256" d="M563.436 832.685c19.639,22.747 44.868,39.788 69.267,56.268 18.618,12.576 37.871,25.582 54.237,40.916 32.7,30.639 54.791,70.658 62.049,109.802 -9.604,-26.658 -25.494,-50.938 -46.651,-70.757 -18.971,-17.77 -41.958,-30.828 -64.188,-43.454 -4.117,-2.339 -8.22,-4.67 -12.281,-7.021 -30.362,-17.574 -55.672,-36.452 -77.381,-57.713 -53.012,-51.919 -76.162,-120.92 -61.926,-184.573 3.696,-16.521 10.743,-31.843 20.255,-45.245 9.711,11.246 20.057,22.236 30.836,32.908 -7.624,13.832 -13.036,29.536 -15.615,46.291 -6.198,40.247 8.891,84.925 41.398,122.578zm174.775 291.3c-1.544,-19.598 -8.455,-37.283 -20.072,-50.878 -4.813,-5.631 -19.807,-20.914 -33.802,-28.056 12.041,-10.022 24.326,-22.877 29.082,-39.329 2.317,3.107 4.501,6.273 6.532,9.473 17.551,27.667 25.71,62.546 23.003,98.277 -1.395,3.542 -2.977,7.053 -4.743,10.513zm-142.188 -44.073c4.599,-10.244 6.642,-21.035 6.208,-32.701 1.119,-0.727 2.237,-1.46 3.35,-2.198 24.935,-16.568 54.186,-40.662 63.016,-81.534 11.99,8.457 22.119,16.969 30.798,25.881 1.077,25.731 -24.07,43.47 -44.315,57.746 -1.66,1.172 -3.289,2.322 -4.871,3.451 -18.947,13.533 -35.792,23.859 -54.186,29.355zm-198.923 -763.945c-85.713,-21.401 -167.603,-45.697 -230.414,-100.759 -51.7,-45.322 -104.54,-138.538 -64.81,-207.715 41.623,52.463 88.36,98.722 138.981,137.553 28.898,22.166 59.461,42.614 90.835,60.771 27.044,15.652 56.602,30.371 90.354,33.385 -15.608,21.685 -24.162,47.985 -24.946,76.765zm-376.073 -155.038c32.52,11.597 65.899,20.762 99.292,27.263 7.052,9.448 14.565,18.311 22.35,26.367 69.079,71.472 171.624,97.499 254.813,118.097 1.535,20.565 6.897,41.719 15.624,61.702 -16.695,1.463 -33.291,2.205 -49.415,2.205 -75.716,0 -143.796,-15.969 -202.352,-47.466 -27.732,-14.918 -53.615,-34.416 -76.943,-57.963 -0.714,-2.524 -2.575,-4.414 -5.048,-5.135 -3.022,-3.175 -5.777,-6.17 -8.394,-9.123 -27.785,-31.361 -58.404,-76.439 -49.927,-115.947zm341.71 251.804c18.958,0 38.447,-0.981 57.96,-2.916 2.058,3.826 3.952,7.116 5.869,10.196 3.686,5.925 7.685,11.742 12.023,17.487 -3.204,11.424 -4.8,22.963 -4.926,34.561 -14.706,1.688 -30.489,2.501 -47.918,2.501 -19.473,0 -39.229,-1.037 -55.986,-2.051 -40.63,-2.461 -93.923,-7.091 -145.827,-21.165 -89.379,-24.237 -155.683,-80.467 -178.73,-151.128 22.369,2.187 44.765,2.752 67.019,1.697 18.858,19.109 40.909,36.634 65.574,52.107 61.219,38.41 139.004,58.711 224.942,58.711zm-284.128 8.693c0.561,-0.094 1.099,-0.242 1.608,-0.441 25.501,17.52 54.527,31.639 86.323,41.982 48.382,15.739 100.245,21.186 149.084,24.728 22.435,1.625 46.441,3.13 69.989,3.13 17.599,0 33.69,-0.817 48.761,-2.507 1.786,17.561 6.695,35.183 14.04,52.654 -65.827,8.847 -123.743,13.063 -177.727,13.063 -7.776,0 -15.577,-0.09 -23.191,-0.267 -41.845,-0.973 -180.346,-12.666 -225.489,-121.58 19.298,-4.12 38.316,-7.736 56.602,-10.762zm38.755 122.911c0.434,-0.109 0.849,-0.253 1.249,-0.428 28.073,11.926 59.325,19.878 92.928,23.646 17.714,1.986 36.272,2.951 56.733,2.951 38.766,0 77.943,-3.541 115.833,-6.965l1.604 -0.144c22.717,-2.053 45.928,-4.615 69.522,-7.67 9.769,19.538 22.389,38.809 37.025,57.509 -63.037,16.457 -128.021,24.799 -193.272,24.799 -12.945,0.001 -26.091,-0.331 -39.068,-0.986 -24.681,-1.248 -45,-3.253 -63.734,-6.299 -1.47,-1.749 -3.708,-2.816 -6.168,-2.816 -1.475,0 -2.882,0.374 -4.098,1.064 -61.821,-11.812 -101.261,-36.672 -120.313,-75.879 17.841,-1.668 34.83,-4.553 51.759,-8.782zm77.526 101.988c11.402,1.874 23.426,3.441 35.777,4.661 22.895,2.264 46.369,3.411 69.768,3.411 61.841,0 124.658,-7.862 186.889,-23.381 -8.571,13.939 -14.645,29.591 -18.095,46.653 -0.106,0.054 -0.207,0.111 -0.308,0.17l-1.386 0.814c-1.218,0.714 -2.183,1.687 -2.844,2.833 -1.281,0.366 -2.551,0.95 -3.803,1.751 -6.674,1.691 -13.528,3.199 -20.21,4.669 -12.057,2.652 -25.087,4.984 -42.251,7.563 -28.007,4.209 -57.998,6.314 -91.685,6.433l-3.328 0.005c-46.576,0 -99.58,-3.513 -142.285,-28.846l33.761 -26.736zm90.731 71.3c6.667,0.196 13.594,0.318 21.103,0.375 1.343,0.01 2.69,0.016 4.032,0.016 28.171,0 57.91,-2.227 90.916,-6.809 14.724,-2.043 30.577,-4.973 49.89,-9.222 1.786,-0.392 3.752,-0.708 5.794,-1.038 2.866,-0.465 5.952,-0.965 8.983,-1.727 -0.888,13.242 -0.256,27.153 1.886,41.482 -46.824,21.738 -91.623,32.757 -133.191,32.757 -29.969,0 -58.149,-5.857 -83.852,-17.424l34.439 -38.41zm66.651 71.192c37.867,-2.583 77.855,-13.297 118.985,-31.877 4.094,17.956 10.493,35.751 18.691,51.973 -32.954,13.475 -67.664,20.304 -103.243,20.304 -10.392,0.002 -20.917,-0.6 -31.295,-1.786 -1.383,-0.566 -2.883,-0.74 -4.308,-0.491 -8.601,-1.12 -17.194,-2.647 -25.644,-4.556 10.643,-9.403 23.34,-20.834 26.814,-33.567zm2.609 54.799c10.38,1.126 20.904,1.697 31.308,1.697 38.292,0 75.834,-7.505 111.647,-22.313 7.536,12.491 16.396,24.351 26.934,36.064 -37.965,29.261 -85.812,45.328 -135.231,45.33 -5.263,0 -10.591,-0.186 -15.845,-0.552 -1.505,-0.616 -3.173,-0.727 -4.763,-0.331 -24.379,-2.218 -47.701,-8.228 -69.458,-17.893 19.911,-12.177 38.513,-26.276 55.408,-42.002zm17.033 76.262c5.718,0.406 11.511,0.612 17.241,0.612 53.478,0 105.447,-17.65 146.723,-49.741 11.477,11.368 24.481,22.35 39.552,33.399 -30.122,26.887 -69.405,45.193 -116.854,54.438 -21.915,4.27 -42.25,6.437 -60.439,6.437 -30.457,0 -55.62,-6.022 -74.924,-17.911l48.701 -27.234zm68.625 57.703c1.195,-0.153 2.386,-0.308 3.567,-0.471 59.594,-8.297 108.314,-29.631 144.871,-63.423 13.016,8.873 27.436,17.862 43.926,27.389 -60.263,58.387 -144.681,89.545 -229.378,83.927 14.582,-14.362 26.743,-29.951 37.014,-47.422zm91.632 46.213c0.11,-0.427 0.187,-0.854 0.229,-1.28 43.185,-15.786 82.786,-40.93 114.888,-72.945 2.232,1.359 4.485,2.758 6.794,4.221 -5.785,36.749 -29.224,59.1 -62.597,81.273 -29.195,19.401 -55.857,29.817 -81.211,31.689 10.381,-12.325 17.731,-26.733 21.897,-42.958zm503.793 -313.689c-2.58,-16.754 -7.993,-32.457 -15.617,-46.289 10.779,-10.672 21.127,-21.663 30.837,-32.908 9.512,13.401 16.558,28.723 20.253,45.244 14.238,63.656 -8.913,132.655 -61.925,184.574 -21.707,21.259 -47.018,40.137 -77.38,57.713 -4.058,2.35 -8.16,4.679 -12.274,7.017 -22.232,12.628 -45.222,25.686 -64.196,43.458 -21.157,19.819 -37.047,44.098 -46.651,70.757 7.259,-39.146 29.349,-79.162 62.049,-109.802 16.366,-15.334 35.619,-28.34 54.237,-40.916 24.399,-16.48 49.628,-33.521 69.267,-56.268 32.508,-37.652 47.597,-82.331 41.4,-122.58zm-128.174 340.452c-1.58,-1.129 -3.21,-2.279 -4.87,-3.451 -20.245,-14.276 -45.392,-32.015 -44.314,-57.75 8.678,-8.907 18.807,-17.42 30.798,-25.877 8.83,40.871 38.08,64.965 63.015,81.533 1.113,0.739 2.23,1.472 3.35,2.199 -0.432,11.668 1.611,22.458 6.208,32.701 -18.394,-5.496 -35.239,-15.822 -54.187,-29.355zm-3.872 -96.765c2.293,-1.452 4.563,-2.864 6.795,-4.222 32.106,32.016 71.705,57.158 114.887,72.944 0.042,0.426 0.119,0.853 0.228,1.279 4.168,16.228 11.52,30.635 21.9,42.959 -25.356,-1.872 -52.019,-12.288 -81.213,-31.689 -33.373,-22.173 -56.81,-44.522 -62.597,-81.271zm65.105 -40.105c36.557,33.792 85.277,55.126 144.871,63.423 1.181,0.163 2.371,0.318 3.565,0.471 10.272,17.471 22.434,33.062 37.017,47.422 -84.703,5.615 -169.117,-25.538 -229.378,-83.929 16.482,-9.52 30.901,-18.509 43.925,-27.387zm13.547 -9.539c15.071,-11.049 28.074,-22.029 39.553,-33.399 41.312,32.101 93.265,49.741 146.722,49.741 5.73,0 11.524,-0.206 17.242,-0.612l48.702 27.234c-19.305,11.889 -44.469,17.911 -74.924,17.911 -18.19,0 -38.525,-2.167 -60.442,-6.437 -47.445,-9.245 -86.73,-27.55 -116.853,-54.438zm206.5 -0.637c-1.597,-0.396 -3.258,-0.285 -4.764,0.331 -5.252,0.366 -10.579,0.552 -15.845,0.552 -49.419,0.001 -97.269,-16.069 -135.231,-45.33 10.541,-11.714 19.399,-23.575 26.935,-36.064 35.814,14.808 73.356,22.313 111.647,22.313 10.405,0 20.927,-0.571 31.309,-1.697 16.892,15.724 35.494,29.824 55.407,42.002 -21.757,9.664 -45.079,15.675 -69.458,17.893zm17.828 -76.571c-1.419,-0.244 -2.918,-0.074 -4.307,0.491 -10.377,1.185 -20.901,1.786 -31.296,1.786 -35.576,0 -70.286,-6.828 -103.243,-20.304 8.199,-16.219 14.598,-34.015 18.692,-51.973 41.129,18.58 81.117,29.294 118.985,31.877 3.473,12.733 16.17,24.165 26.812,33.567 -8.447,1.909 -17.041,3.436 -25.643,4.556zm-115.235 -127.719c3.029,0.761 6.116,1.261 8.981,1.726 2.042,0.33 4.008,0.646 5.794,1.038 19.311,4.248 35.165,7.178 49.891,9.222 34.58,4.801 65.437,7.013 94.947,6.793 7.511,-0.057 14.436,-0.179 21.103,-0.375l34.439 38.41c-25.703,11.567 -53.883,17.424 -83.852,17.424 -41.571,0 -86.37,-11.019 -133.191,-32.757 2.143,-14.332 2.774,-28.243 1.888,-41.481zm162.924 2.686l-3.328 -0.005c-33.687,-0.119 -63.679,-2.224 -91.686,-6.433 -17.164,-2.579 -30.194,-4.911 -42.3,-7.574 -6.635,-1.459 -13.487,-2.967 -20.16,-4.658 -1.252,-0.801 -2.523,-1.385 -3.804,-1.751 -0.661,-1.146 -1.626,-2.117 -2.842,-2.832l-1.383 -0.812c-0.102,-0.059 -0.206,-0.117 -0.312,-0.173 -3.451,-17.063 -9.526,-32.718 -18.095,-46.651 62.231,15.517 125.047,23.379 186.887,23.379 23.402,0 46.875,-1.147 69.771,-3.411 12.347,-1.22 24.372,-2.787 35.775,-4.661l33.761 26.736c-42.705,25.333 -95.709,28.846 -142.284,28.846zm117.494 -72.909c-1.215,-0.69 -2.622,-1.064 -4.097,-1.064 -2.46,0 -4.697,1.067 -6.168,2.816 -18.735,3.046 -39.054,5.053 -63.734,6.299 -12.974,0.654 -26.117,0.986 -39.068,0.986 -65.247,0.001 -130.231,-8.341 -193.272,-24.799 14.638,-18.7 27.255,-37.972 37.026,-57.509 23.594,3.055 46.804,5.617 69.52,7.67l1.594 0.144c37.895,3.424 77.078,6.965 115.846,6.965 20.46,0 39.016,-0.965 56.731,-2.951 33.603,-3.767 64.855,-11.72 92.929,-23.646 0.399,0.177 0.817,0.319 1.251,0.428 16.927,4.229 33.916,7.114 51.756,8.782 -19.052,39.208 -58.493,64.068 -120.314,75.879zm-61.577 -75.23c-7.613,0.177 -15.415,0.267 -23.19,0.267 -53.983,0 -111.899,-4.216 -177.728,-13.063 7.346,-17.472 12.248,-35.093 14.04,-52.654 15.071,1.69 31.162,2.507 48.761,2.507 23.55,0 47.555,-1.505 69.99,-3.13 48.838,-3.542 100.701,-8.989 149.083,-24.728 31.796,-10.343 60.823,-24.462 86.325,-41.982 0.507,0.199 1.046,0.347 1.607,0.441 18.284,3.026 37.303,6.642 56.601,10.762 -45.143,108.914 -183.644,120.607 -225.489,121.58zm63.564 -102.422c-51.904,14.074 -105.197,18.704 -145.827,21.165 -16.756,1.014 -36.512,2.051 -55.986,2.051 -17.429,0 -33.211,-0.814 -47.917,-2.501 -0.126,-11.598 -1.735,-23.137 -4.927,-34.561 4.338,-5.744 8.336,-11.562 12.023,-17.487 1.917,-3.08 3.811,-6.369 5.869,-10.196 19.514,1.935 39.002,2.916 57.96,2.916 85.939,0 163.723,-20.301 224.942,-58.711 24.668,-15.476 46.72,-33 65.574,-52.107 7.266,0.344 14.61,0.52 21.856,0.52 0.003,0 0.003,0 0.004,0 14.934,0 30.097,-0.746 45.159,-2.217 -23.047,70.661 -89.351,126.891 -178.73,151.128zm104.585 -165.347c-2.474,0.721 -4.333,2.611 -5.048,5.135 -23.329,23.546 -49.21,43.044 -76.942,57.963 -58.553,31.494 -126.634,47.464 -202.354,47.466 -16.121,0 -32.716,-0.741 -49.415,-2.205 8.727,-19.98 14.088,-41.135 15.624,-61.702 83.189,-20.598 185.734,-46.625 254.813,-118.097 7.787,-8.056 15.299,-16.918 22.35,-26.367 33.394,-6.501 66.774,-15.666 99.294,-27.263 8.476,39.511 -22.143,84.587 -49.929,115.947 -2.628,2.966 -5.382,5.959 -8.393,9.123zm-87.338 -70.791c-62.809,55.062 -144.7,79.358 -230.413,100.759 -0.785,-28.777 -9.338,-55.073 -24.94,-76.756 33.669,-2.987 63.268,-17.723 90.347,-33.394 31.376,-18.159 61.937,-38.605 90.834,-60.771 50.621,-38.831 97.358,-85.09 138.981,-137.553 39.728,69.177 -13.109,162.393 -64.809,207.715zm-517.652 829.843c-13.998,7.142 -28.99,22.426 -33.802,28.056 -11.617,13.597 -18.529,31.282 -20.072,50.88 -1.764,-3.462 -3.348,-6.973 -4.743,-10.515 -2.707,-35.732 5.453,-70.612 23.004,-98.277 2.03,-3.198 4.214,-6.366 6.531,-9.473 4.757,16.452 17.042,29.308 29.082,39.329zm-80.795 -696.193c-4.717,2.105 -9.333,4.324 -13.868,6.63 -4.535,-2.306 -9.151,-4.525 -13.868,-6.63 -121.142,-54.053 -255.468,-19.537 -300.027,77.094 -80.62,174.833 283.914,389.247 313.895,382.042 29.981,7.206 394.515,-207.209 313.895,-382.042 -44.558,-96.631 -178.884,-131.147 -300.027,-77.094zm306.265 45.514c12.14,-12.215 22.732,-26.068 30.404,-41.867 7.836,-16.141 12.814,-32.513 14.833,-48.524 4.935,41.204 -9.948,83.802 -31.608,115.088 -0.246,-0.55 -0.442,-1.105 -0.696,-1.654 -3.734,-8.098 -8.065,-15.782 -12.933,-23.043zm-653.894 24.697c-21.66,-31.284 -36.543,-73.883 -31.609,-115.087 2.019,16.011 6.998,32.382 14.836,48.523 7.671,15.799 18.262,29.652 30.402,41.866 -4.869,7.262 -9.2,14.946 -12.934,23.044 -0.253,0.549 -0.45,1.104 -0.695,1.654z"/>
 </g>
</svg>
