<?xml version="1.0" encoding="iso-8859-1"?>
<!-- Generator: Adobe Illustrator 19.0.0, SVG Export Plug-In . SVG Version: 6.00 Build 0)  -->
<svg version="1.1" id="Capa_1" xmlns="http://www.w3.org/2000/svg" xmlns:xlink="http://www.w3.org/1999/xlink" x="0px" y="0px"
	 viewBox="0 0 511.998 511.998" style="enable-background:new 0 0 511.998 511.998;" xml:space="preserve">
<g>
	<g>
		<path d="M246.244,276.647c7.26,0,13.168-5.907,13.168-13.167v-29.253c0.002-2.71-1.434-5.216-3.772-6.588l-46.664-27.377v-23.883
			c0-7.809-6.353-14.163-14.162-14.163h-5.247v-32.454c0-4.22-3.42-7.639-7.639-7.639c-4.22,0-7.639,3.42-7.639,7.639v32.454h-5.247
			c-7.809,0-14.163,6.353-14.163,14.163v23.883l-46.663,27.377c-2.338,1.372-3.774,3.878-3.774,6.589v29.253
			c0,7.26,5.907,13.167,13.167,13.167h3.337v25.08l-14.519,28.319c-0.212,0.413-0.399,0.835-0.564,1.263
			c-0.892,1.25-1.421,2.775-1.421,4.427c0,1.373,0.367,2.658,1,3.771c0.129,0.474,0.282,0.944,0.466,1.406l30.41,76.547
			c1.557,3.922,6.001,5.84,9.919,4.279c3.921-1.558,5.837-5.999,4.279-9.919l-27.19-68.445h117.202l-58.601,147.508l-17.787-44.772
			c-1.558-3.921-5.998-5.839-9.92-4.278c-3.92,1.558-5.836,5.999-4.278,9.92l20.96,52.76c1.805,4.546,6.132,7.484,11.023,7.484
			c0.001,0,0.001,0,0.002,0c4.891,0,9.218-2.936,11.024-7.482l64.996-163.605c1.475-3.714,1.29-7.333-0.521-10.866l-14.518-28.318
			v-25.08H246.244z M170.159,177.495h23.54v19.502h-23.54V177.495z M124.596,328.099l8.658-16.887h97.348l8.657,16.887H124.596z
			 M136.227,295.933v-19.285h91.405v19.285H136.227z M237.049,261.368L237.049,261.368c-0.572-0.136-1.166-0.216-1.78-0.216H128.586
			c-0.614,0-1.208,0.08-1.78,0.217h-7.085v-22.767l44.873-26.327h34.666l26.875,15.767h-65.773c-4.22,0-7.639,3.42-7.639,7.639
			c0,4.22,3.42,7.639,7.639,7.639h83.772v18.048H237.049z"/>
	</g>
</g>
<g>
	<g>
		<path d="M399.919,0c-4.22,0-7.639,3.42-7.639,7.639v63.87c0,17.893-14.557,32.45-32.45,32.45H336.01
			c-17.893,0-32.45-14.557-32.45-32.45V47.728C303.56,21.411,282.149,0,255.831,0h-33.815c-26.317,0-47.728,21.411-47.728,47.728V96
			c0,4.22,3.42,7.639,7.639,7.639c4.22,0,7.639-3.42,7.639-7.639V47.728c0-17.893,14.557-32.449,32.449-32.449h33.815
			c17.893,0,32.45,14.556,32.45,32.449v23.781c0,26.318,21.411,47.729,47.729,47.729h23.818c26.318,0,47.729-21.411,47.729-47.729
			V7.639C407.559,3.42,404.138,0,399.919,0z"/>
	</g>
</g>
<g>
</g>
<g>
</g>
<g>
</g>
<g>
</g>
<g>
</g>
<g>
</g>
<g>
</g>
<g>
</g>
<g>
</g>
<g>
</g>
<g>
</g>
<g>
</g>
<g>
</g>
<g>
</g>
<g>
</g>
</svg>
